<?xml version="1.0" standalone="no"?>
<!DOCTYPE svg PUBLIC "-//W3C//DTD SVG 20010904//EN"
 "http://www.w3.org/TR/2001/REC-SVG-20010904/DTD/svg10.dtd">
<svg version="1.0" xmlns="http://www.w3.org/2000/svg"
 width="200.000000pt" height="200.000000pt" viewBox="0 0 200.000000 200.000000"
 preserveAspectRatio="xMidYMid meet">

<g transform="translate(0.000000,200.000000) scale(0.100000,-0.100000)"
fill="#000000" stroke="none">
<path d="M206 1086 c-53 -161 -96 -297 -96 -300 0 -3 124 -6 276 -6 258 0 275
1 270 18 -4 9 -48 143 -99 297 l-92 280 -81 3 -81 3 -97 -295z m228 -31 c25
-83 46 -154 46 -158 0 -4 -45 -7 -100 -7 -71 0 -100 3 -100 12 0 28 94 318
101 311 4 -5 28 -76 53 -158z"/>
<path d="M580 1280 c0 -99 2 -110 63 -294 l62 -191 3 93 3 92 42 0 43 0 49
-100 49 -100 73 0 c40 0 73 3 73 6 0 4 -23 50 -51 103 l-50 97 39 40 c48 47
67 106 59 182 -7 67 -38 117 -91 144 -35 19 -63 22 -203 26 l-163 5 0 -103z
m302 -37 c26 -23 25 -106 -2 -133 -16 -16 -33 -20 -95 -20 l-75 0 0 85 0 85
77 0 c57 0 81 -4 95 -17z"/>
<path d="M1089 1162 c-48 -147 -70 -227 -66 -243 4 -13 21 -49 39 -79 l31 -55
19 58 c23 67 28 69 143 65 l80 -3 20 -62 20 -63 71 0 71 0 -95 293 c-53 160
-100 295 -106 299 -6 4 -43 8 -83 8 l-72 0 -72 -218z m210 -134 c1 -5 -28 -8
-64 -8 -36 0 -65 3 -65 6 0 3 14 52 32 107 l32 102 32 -100 c18 -55 33 -103
33 -107z"/>
<path d="M1370 1372 c0 -29 50 -145 110 -254 l70 -128 0 -105 0 -105 65 0 65
0 0 102 0 101 105 189 c58 104 105 193 105 198 0 6 -29 10 -64 10 -77 0 -79
-1 -151 -149 -27 -55 -52 -101 -55 -101 -3 0 -33 56 -68 125 l-62 125 -60 0
c-33 0 -60 -4 -60 -8z"/>
<path d="M126 686 c-20 -49 -20 -49 5 -36 15 9 24 8 35 -1 19 -15 17 -1 -5 41
l-19 35 -16 -39z m21 -18 c-15 -9 -19 -4 -11 16 5 14 9 15 15 5 5 -8 3 -17 -4
-21z"/>
<path d="M202 708 c-17 -17 -15 -44 4 -62 19 -20 25 -20 50 0 18 14 18 15 -4
4 -41 -20 -70 22 -36 51 13 11 19 10 37 -1 20 -12 21 -12 8 3 -16 20 -42 22
-59 5z"/>
<path d="M302 708 c-34 -34 6 -90 49 -68 11 7 18 14 15 17 -3 3 -12 1 -19 -6
-21 -17 -47 -3 -47 25 0 30 26 42 54 24 19 -12 20 -12 7 3 -16 20 -42 22 -59
5z"/>
<path d="M391 678 c1 -24 3 -35 6 -26 2 9 12 19 21 21 15 4 15 5 0 6 -10 0
-18 7 -18 15 0 8 8 17 18 19 13 4 11 5 -5 6 -21 1 -23 -3 -22 -41z"/>
<path d="M450 680 c0 -22 3 -40 8 -40 4 0 6 18 4 40 -2 22 -6 40 -8 40 -2 0
-4 -18 -4 -40z"/>
<path d="M521 678 c1 -24 3 -35 6 -26 2 9 12 19 21 21 15 4 15 5 0 6 -10 0
-18 7 -18 15 0 8 8 17 18 19 13 4 11 5 -5 6 -21 1 -23 -3 -22 -41z"/>
<path d="M580 678 c1 -35 3 -40 11 -25 10 17 12 17 28 3 15 -14 17 -12 16 22
0 33 -3 37 -27 40 -27 3 -28 1 -28 -40z m50 17 c0 -8 -9 -15 -20 -15 -20 0
-26 11 -13 23 12 13 33 7 33 -8z"/>
<path d="M677 685 c-21 -44 -21 -51 -2 -35 8 6 14 15 13 18 0 4 0 14 1 22 1
13 3 13 10 1 5 -8 7 -20 5 -26 -3 -7 2 -15 10 -18 9 -4 16 -5 16 -3 0 7 -30
76 -33 76 -2 0 -11 -16 -20 -35z"/>
<path d="M743 713 c12 -3 17 -16 19 -41 l1 -37 4 35 c3 19 10 38 16 42 7 4 -4
7 -23 7 -19 -1 -27 -3 -17 -6z"/>
<path d="M810 680 c0 -22 4 -40 10 -40 5 0 7 6 4 14 -3 8 2 16 13 19 16 4 16
5 1 6 -26 2 -22 29 5 34 19 4 18 4 -5 6 -26 1 -28 -2 -28 -39z"/>
<path d="M882 678 l1 -43 4 38 c5 42 26 48 47 14 9 -15 7 -21 -8 -33 -11 -8
-15 -14 -10 -14 14 0 34 22 34 36 0 19 -29 44 -51 44 -16 0 -19 -7 -17 -42z"/>
<path d="M1070 681 c0 -22 3 -42 8 -45 4 -2 6 14 4 36 -4 34 -2 39 13 36 10
-1 23 -11 29 -21 9 -15 7 -21 -9 -34 -11 -8 -14 -13 -6 -11 46 13 36 70 -13
76 -24 3 -26 1 -26 -37z"/>
<path d="M1193 680 c0 -25 2 -35 4 -22 2 12 2 32 0 45 -2 12 -4 2 -4 -23z"/>
<path d="M1232 680 c1 -32 2 -37 5 -16 l5 29 23 -29 24 -29 0 40 c-1 32 -2 35
-8 16 l-7 -25 -21 30 -22 29 1 -45z"/>
<path d="M1323 703 c-4 -9 -2 -18 3 -20 24 -8 36 -22 29 -32 -5 -9 -10 -9 -21
0 -9 7 -14 8 -14 1 0 -13 21 -21 38 -14 19 7 14 39 -8 45 -11 3 -20 11 -20 17
0 7 8 10 20 7 11 -3 18 -1 14 4 -9 15 -34 10 -41 -8z"/>
<path d="M1392 690 c-2 -32 0 -33 36 -24 33 9 26 48 -8 52 -22 3 -26 -1 -28
-28z m44 9 c8 -14 -18 -31 -30 -19 -9 9 0 30 14 30 5 0 12 -5 16 -11z"/>
<path d="M1471 678 c1 -24 3 -35 6 -26 2 9 12 19 21 21 15 4 15 5 0 6 -26 2
-22 29 5 34 19 4 18 4 -5 6 -27 1 -28 -1 -27 -41z"/>
<path d="M1542 708 c-34 -34 6 -90 48 -68 11 6 20 13 20 16 0 2 -9 0 -21 -6
-25 -14 -49 2 -49 32 0 25 28 34 54 18 19 -12 20 -12 7 3 -16 20 -42 22 -59 5z"/>
<path d="M1627 712 c7 -4 13 -22 15 -40 1 -18 6 -32 11 -32 4 0 6 13 3 30 -3
21 1 33 12 40 13 7 9 9 -18 10 -20 0 -30 -4 -23 -8z"/>
<path d="M1703 680 c0 -25 2 -35 4 -22 2 12 2 32 0 45 -2 12 -4 2 -4 -23z"/>
<path d="M1742 708 c-34 -34 6 -90 48 -68 35 19 20 80 -20 80 -9 0 -21 -5 -28
-12z m56 -24 c4 -25 -20 -47 -42 -38 -16 6 -22 45 -9 58 14 14 48 1 51 -20z"/>
<path d="M1832 680 c0 -38 1 -41 7 -15 l6 29 21 -27 c12 -15 25 -27 28 -27 3
0 5 19 4 43 -1 38 -2 39 -5 8 l-4 -34 -29 34 -29 34 1 -45z"/>
<path d="M1020 697 c0 -7 5 -18 12 -25 9 -9 9 -15 0 -24 -10 -10 -15 -10 -22
2 -6 9 -10 10 -10 3 0 -20 21 -26 38 -10 12 13 13 19 3 31 -7 8 -10 20 -6 26
3 5 1 10 -4 10 -6 0 -11 -6 -11 -13z"/>
</g>
</svg>
