<svg xmlns="http://www.w3.org/2000/svg" viewBox="0 0 101.38 42.33"><defs><style>.cls-1{fill:#fff;}</style></defs><title>Asset 1</title><g id="Layer_2" data-name="Layer 2"><g id="Layer_1-2" data-name="Layer 1"><path class="cls-1" d="M3.39,41.11H1.1L.63,42.25H0l2-4.76H2.5l2,4.76H3.86Zm-2.07-.55H3.16l-.93-2.25Z"/><path class="cls-1" d="M7.25,42.32a2.46,2.46,0,0,1,0-4.91A2.26,2.26,0,0,1,9.51,39.1H8.9A1.67,1.67,0,0,0,7.25,38a1.87,1.87,0,0,0,0,3.74,1.67,1.67,0,0,0,1.67-1.17h.61a2.26,2.26,0,0,1-2.28,1.75Z"/><path class="cls-1" d="M12.66,42.32a2.46,2.46,0,0,1,0-4.91,2.26,2.26,0,0,1,2.26,1.69h-.61A1.67,1.67,0,0,0,12.66,38a1.87,1.87,0,0,0,0,3.74,1.67,1.67,0,0,0,1.67-1.17h.61a2.26,2.26,0,0,1-2.28,1.75Z"/><path class="cls-1" d="M18.7,41.68v.57H15.94V37.49h2.69v.56h-2.1v1.47h1.92v.56H16.53v1.6Z"/><path class="cls-1" d="M22.42,41.69v.56H19.73V37.49h.6v4.2Z"/><path class="cls-1" d="M26,41.68v.57H23.26V37.49H26v.56H23.86v1.47h1.92v.56H23.86v1.6Z"/><path class="cls-1" d="M28.74,40.38H27.65v1.87h-.59V37.49h1.8a1.46,1.46,0,0,1,1.55,1.45,1.41,1.41,0,0,1-1.05,1.38l1.14,1.93h-.67Zm-1.09-.56h1.18a.89.89,0,1,0,0-1.77H27.65Z"/><path class="cls-1" d="M34.53,41.11H32.25l-.47,1.14h-.63l1.94-4.76h.56l2,4.76H35Zm-2.06-.55h1.84l-.93-2.25Z"/><path class="cls-1" d="M39,38.05H37.54v4.2H37v-4.2H35.5v-.56H39Z"/><path class="cls-1" d="M42.6,41.68v.57H39.83V37.49h2.69v.56H40.43v1.47h1.92v.56H40.43v1.6Z"/><path class="cls-1" d="M47.63,39.87a2.32,2.32,0,0,1-2.42,2.38H43.63V37.49h1.58A2.32,2.32,0,0,1,47.63,39.87Zm-.61,0a1.75,1.75,0,0,0-1.82-1.82h-1v3.64h1A1.76,1.76,0,0,0,47,39.87Z"/><path class="cls-1" d="M53.31,40.85a1.46,1.46,0,0,1-1.52,1.48,1.43,1.43,0,0,1-1.48-1.4h.55a.88.88,0,0,0,.93.86.93.93,0,0,0,1-1,1,1,0,0,0-1-.95h-.5v-.11l1-1.53H50.45v-.51h2.68v.13l-1.07,1.58A1.39,1.39,0,0,1,53.31,40.85Z"/><path class="cls-1" d="M58.39,39.87A2.31,2.31,0,0,1,56,42.25H54.39V37.49H56A2.31,2.31,0,0,1,58.39,39.87Zm-.61,0A1.75,1.75,0,0,0,56,38.05H55v3.64h1A1.75,1.75,0,0,0,57.78,39.87Z"/><path class="cls-1" d="M61.43,37.49H62v4.76h-.59Z"/><path class="cls-1" d="M67.19,37.49v4.76h-.51L64,38.53v3.72h-.59V37.49h.54l2.67,3.67V37.49Z"/><path class="cls-1" d="M68.28,40.78h.61c0,.59.48.94,1.14.94s1.07-.31,1.07-.82-.57-.68-1.18-.83-1.55-.37-1.55-1.32S69,37.43,70,37.43a1.4,1.4,0,0,1,1.59,1.41H71c0-.53-.43-.84-1-.84s-1,.28-1,.73.54.65,1.15.79,1.59.39,1.59,1.38S71,42.31,70,42.31A1.55,1.55,0,0,1,68.28,40.78Z"/><path class="cls-1" d="M76.09,39a1.52,1.52,0,0,1-1.58,1.53H73.4v1.71h-.6V37.49h1.71A1.52,1.52,0,0,1,76.09,39Zm-.61,0a.94.94,0,0,0-1-.94H73.4V40h1.08A.94.94,0,0,0,75.48,39Z"/><path class="cls-1" d="M79.75,41.68v.57H77V37.49h2.69v.56H77.58v1.47H79.5v.56H77.58v1.6Z"/><path class="cls-1" d="M82.84,42.32a2.46,2.46,0,0,1,0-4.91,2.24,2.24,0,0,1,2.25,1.69h-.61A1.66,1.66,0,0,0,82.84,38a1.87,1.87,0,0,0,0,3.74,1.69,1.69,0,0,0,1.67-1.17h.61a2.28,2.28,0,0,1-2.28,1.75Z"/><path class="cls-1" d="M89,38.05H87.52v4.2h-.6v-4.2H85.48v-.56H89Z"/><path class="cls-1" d="M89.81,37.49h.59v4.76h-.59Z"/><path class="cls-1" d="M91.47,39.87A2.49,2.49,0,1,1,94,42.33,2.4,2.4,0,0,1,91.47,39.87Zm4.38,0A1.89,1.89,0,1,0,94,41.74,1.83,1.83,0,0,0,95.85,39.87Z"/><path class="cls-1" d="M101.33,37.49v4.76h-.51l-2.7-3.72v3.72h-.59V37.49h.54l2.67,3.67V37.49Z"/><polygon class="cls-1" points="92.88 0 85.54 14.43 78.4 0 71.28 0 73.93 8.11 81.66 22 81.66 34 89.19 34 89.19 22 101.38 0 92.88 0"/><path class="cls-1" d="M47,21.74l.64-.32c3.42-1.7,5.22-5.19,5.22-10.1C52.87,3.81,49,0,41.21,0H26.74V11l7.51,23h0V22.68h4.81L44.62,34h8.74Zm-6-5.61h-6.7V6.56H41c2.48,0,4.13,1.11,4.13,4.76S43.5,16.13,41,16.13Z"/><path class="cls-1" d="M51.36,25.2,55.91,34l2.18-7.19H69.61L71.79,34H80L68.83,0H59.6Zm8.73-4.94L63.83,8l3.74,12.25Z"/><path class="cls-1" d="M31.6,34,20.47,0H11.24L.12,34Zm-22-6.56L15.58,8.06,21.5,27.44Z"/></g></g></svg>